<svg aria-hidden="true" style="position: absolute; width: 0; height: 0; overflow: hidden;" version="1.1" xmlns="http://www.w3.org/2000/svg" xmlns:xlink="http://www.w3.org/1999/xlink">
<defs>
<symbol id="icon-arrow" viewBox="0 0 17 32">
<title>arrow</title>
<path d="M16.057 31.856l-15.885-15.856 15.885-15.856 0.402 0.402-15.454 15.454 15.454 15.454z"></path>
</symbol>
<symbol id="icon-facebook" viewBox="0 0 32 32">
<title>facebook</title>
<path d="M16.040 0.318c-8.735 0-15.802 7.146-15.802 15.802 0 8.735 7.067 15.802 15.802 15.802s15.802-7.067 15.802-15.802c-0.079-8.655-7.146-15.802-15.802-15.802v0zM19.931 16.675h-2.541v9.132h-3.811v-9.132h-1.826v-3.256h1.826v-2.065c0-1.509 0.715-3.811 3.811-3.811h2.779v3.176h-2.065c-0.318 0-0.794 0.159-0.794 0.873v1.906h2.859l-0.238 3.176z"></path>
</symbol>
<symbol id="icon-instagram" viewBox="0 0 32 32">
<title>instagram</title>
<path d="M16.277 19.121c1.738 0 3.16-1.422 3.16-3.16 0-0.711-0.237-1.343-0.632-1.817-0.553-0.79-1.501-1.343-2.528-1.343s-1.975 0.553-2.528 1.343c-0.395 0.553-0.632 1.185-0.632 1.817 0 1.738 1.422 3.16 3.16 3.16v0z"></path>
<path d="M23.151 12.168v-3.002h-3.002v3.002h3.002z"></path>
<path d="M16.277 0.316c-8.612 0-15.644 7.032-15.644 15.644 0 8.691 7.032 15.723 15.723 15.723s15.723-7.032 15.723-15.723c-0.079-8.612-7.111-15.644-15.802-15.644v0zM25.205 14.143v7.348c0 1.896-1.58 3.477-3.477 3.477h-10.904c-1.896 0-3.477-1.58-3.477-3.477v-10.983c0-1.896 1.58-3.477 3.477-3.477h10.983c1.896 0 3.477 1.58 3.477 3.477v3.635z"></path>
<path d="M21.175 15.96c0 2.686-2.212 4.899-4.899 4.899s-4.899-2.212-4.899-4.899c0-0.632 0.158-1.264 0.395-1.817h-2.686v7.348c0 0.948 0.79 1.738 1.738 1.738h10.983c0.948 0 1.738-0.79 1.738-1.738v-7.348h-2.686c0.158 0.553 0.316 1.185 0.316 1.817v0z"></path>
</symbol>
<symbol id="icon-logo" viewBox="0 0 31 32">
<title>logo</title>
<path d="M15.477 0.645c-8.473 0-15.344 6.871-15.344 15.344 0 3.736 1.334 7.138 3.536 9.807l4.648-3.825c1.045-0.867 1.468-2.29 1.045-3.58-0.534-1.601-0.089-3.469 2.046-5.604 0.222-0.222 5.337-5.337 6.96-6.96 0.267-0.267 0.712-0.267 1.001 0 0.289 0.289 0.289 0.756 0 1.045l-6.449 6.449c-0.289 0.289-0.289 0.756 0 1.045s0.756 0.289 1.045 0l6.449-6.449c0.289-0.289 0.756-0.289 1.045 0v0c0.289 0.289 0.289 0.756 0 1.045l-6.449 6.449c-0.289 0.289-0.289 0.756 0 1.045s0.756 0.289 1.045 0l6.449-6.449c0.289-0.289 0.756-0.289 1.045 0v0c0.289 0.289 0.289 0.756 0 1.045l-6.449 6.449c-0.289 0.289-0.289 0.756 0 1.045s0.756 0.289 1.045 0l6.449-6.449c0.289-0.289 0.756-0.289 1.045 0 0.267 0.267 0.267 0.712 0 1.001-1.623 1.623-6.738 6.738-6.96 6.96-2.135 2.135-4.003 2.58-5.604 2.046-1.29-0.423-2.713 0-3.58 1.045l-3.803 4.648c2.646 2.179 6.049 3.491 9.762 3.491 8.473 0 15.344-6.871 15.344-15.344s-6.849-15.3-15.322-15.3z"></path>
</symbol>
<symbol id="icon-twitter" viewBox="0 0 33 32">
<title>twitter</title>
<path d="M16.439 0.16c-8.778 0-15.88 7.102-15.88 15.8 0 8.778 7.102 15.88 15.88 15.88s15.88-7.102 15.88-15.88c-0.080-8.698-7.182-15.8-15.88-15.8v0zM23.461 12.369c0 0.16 0 0.319 0 0.479 0 4.788-3.671 10.374-10.374 10.374-2.075 0-3.99-0.638-5.586-1.676 0.319 0 0.559 0.080 0.878 0.080 1.676 0 3.272-0.559 4.549-1.596-1.596 0-2.953-1.117-3.431-2.554 0.239 0.080 0.479 0.080 0.718 0.080 0.319 0 0.638-0.080 0.958-0.16-1.676-0.319-2.953-1.835-2.953-3.591 0 0 0 0 0-0.080 0.479 0.239 1.037 0.399 1.676 0.479-0.958-0.638-1.596-1.756-1.596-3.032 0-0.638 0.16-1.277 0.479-1.835 1.835 2.234 4.469 3.671 7.501 3.83-0.080-0.239-0.080-0.559-0.080-0.798 0-1.995 1.596-3.671 3.671-3.671 1.037 0 1.995 0.479 2.633 1.117 0.798-0.16 1.596-0.479 2.314-0.878-0.239 0.878-0.878 1.596-1.596 1.995 0.718-0.080 1.436-0.319 2.075-0.559-0.479 0.798-1.117 1.516-1.835 1.995v0z"></path>
</symbol>
</defs>
</svg>
